<svg width="45" height="51" viewBox="0 0 45 51" fill="none" xmlns="http://www.w3.org/2000/svg">
<path d="M36.9756 0.849854H3.93637C2.52875 0.849854 1.38672 1.99188 1.38672 3.3995V40.3694L11.1604 50.1431H36.9756C38.3832 50.1431 39.5252 49.001 39.5252 47.5934V3.3995C39.5252 1.99188 38.3832 0.849854 36.9756 0.849854Z" fill="#D1E7FF"/>
<path d="M39.5252 16.4157V47.5934C39.5252 49.0016 38.3837 50.1431 36.9756 50.1431H11.1604L1.38672 40.3694V29.9895C1.38672 29.4488 1.88422 29.0456 2.41306 29.1584C16.8581 32.2412 30.0301 26.6907 37.99 15.9133C38.4782 15.2524 39.5252 15.5942 39.5252 16.4157Z" fill="#B9DCFF"/>
<path d="M34.638 12.5391V38.4541C34.638 39.2318 34.1111 39.9138 33.3568 40.1008C31.4839 40.5635 29.9615 42.036 29.4824 43.9752C29.2954 44.7295 28.6134 45.2564 27.8358 45.2564H13.1816C12.404 45.2564 11.722 44.7295 11.535 43.9752C11.0722 42.1023 9.59992 40.5799 7.66059 40.1008C6.90632 39.9138 6.37939 39.2318 6.37939 38.4541V12.5391C6.37939 11.7614 6.90632 11.0794 7.66059 10.8924C9.5332 10.4298 11.0558 8.95756 11.535 7.01802C11.722 6.26374 12.404 5.73682 13.1816 5.73682H27.8358C28.6134 5.73682 29.2954 6.26374 29.4824 7.01802C29.9451 8.89063 31.4173 10.4132 33.3568 10.8924C34.1111 11.0794 34.638 11.7614 34.638 12.5391Z" fill="#E8F3FF"/>
<path d="M33.2211 21.1917C33.7658 20.6982 34.638 21.0895 34.638 21.8244V38.454C34.638 39.2316 34.1111 39.9136 33.3568 40.1006C31.4842 40.5633 29.9616 42.0355 29.4824 43.975C29.2954 44.7293 28.6134 45.2562 27.8358 45.2562H13.1816C12.404 45.2562 11.722 44.7293 11.535 43.975C11.0722 42.1021 9.59992 40.5797 7.66059 40.1006C6.90632 39.9136 6.37939 39.2316 6.37939 38.454V30.7281C6.37939 30.23 6.80582 29.8412 7.30226 29.8819C17.2641 30.699 26.3667 27.4018 33.2211 21.1917Z" fill="#D1E7FF"/>
<path d="M43.444 43.1794C40.2704 39.1272 40.3441 39.2189 40.3334 39.2136C41.348 37.9579 41.9557 36.3601 41.9557 34.62C41.9557 30.5788 38.6793 27.3025 34.6382 27.3025C30.597 27.3025 27.3207 30.5788 27.3207 34.62C27.3207 36.3601 27.9283 37.9579 28.9429 39.2136C28.9321 39.219 29.0184 39.1113 25.8323 43.1794C25.4465 43.6721 25.7611 44.3958 26.3837 44.4489L27.9687 44.5859C28.2205 44.6072 28.4478 44.7495 28.5774 44.9673L29.3912 46.3335C29.711 46.8711 30.4992 46.8381 30.7733 46.2772L32.9862 41.7505C34.0694 41.9996 35.2046 42.0002 36.2901 41.7505L38.503 46.2772C38.7771 46.8381 39.5654 46.8711 39.8851 46.3335L40.6989 44.9673C40.8285 44.7495 41.0558 44.6072 41.3076 44.5859L42.8926 44.4489C43.5152 44.3958 43.83 43.6721 43.444 43.1794Z" fill="#D1E7FF"/>
<path d="M43.4439 43.1794C43.8298 43.6721 43.5151 44.3958 42.8926 44.4489L41.3075 44.5859C41.0558 44.6072 40.8284 44.7496 40.6988 44.9673L39.885 46.3335C39.5653 46.8711 38.777 46.8381 38.5029 46.2772L36.29 41.7505C37.9091 41.3766 39.3231 40.4651 40.3334 39.2136C40.3442 39.219 40.2579 39.1112 43.4439 43.1794Z" fill="#B9DCFF"/>
<path d="M32.9862 41.7505L30.7733 46.2772C30.4992 46.8381 29.711 46.8711 29.3912 46.3335L28.5774 44.9673C28.4478 44.7496 28.2205 44.6072 27.9687 44.5859L26.3837 44.4489C25.7611 44.3958 25.4465 43.6721 25.8323 43.1794C29.0059 39.1271 28.9322 39.2189 28.9429 39.2136C29.9532 40.4651 31.3672 41.3766 32.9862 41.7505Z" fill="#B9DCFF"/>
<path d="M11.1604 42.4272V50.143L1.38672 40.3694H9.10259C10.2393 40.3694 11.1604 41.2904 11.1604 42.4272Z" fill="#E8F3FF"/>
<path d="M30.0014 37.492C30.2085 38.5732 28.7497 39.1007 28.2199 38.1358C27.6025 37.0112 27.272 35.7073 27.3267 34.3237C27.4792 30.4673 30.666 27.3504 34.547 27.3031C35.6394 27.2897 35.8953 28.8184 34.8606 29.169C31.4131 30.3374 29.3016 33.84 30.0014 37.492Z" fill="#E8F3FF"/>
<path d="M27.1791 43.8798C27.0794 44.2366 26.7527 44.4806 26.3836 44.449C25.761 44.3955 25.4466 43.6724 25.8322 43.1795L28.9407 39.2148C28.9535 39.2083 29.0706 39.4009 29.4685 39.7983C29.7365 40.066 29.7583 40.4932 29.5247 40.7913C27.1447 43.8272 27.2381 43.6683 27.1791 43.8798Z" fill="#D1E7FF"/>
<path d="M39.8279 45.8584C39.9551 45.9833 39.9763 46.1804 39.8852 46.3335C39.5651 46.8708 38.7771 46.8381 38.503 46.2772L36.29 41.7505C36.6126 41.6759 36.927 41.5803 37.2319 41.4644C37.422 41.3923 37.6353 41.475 37.7245 41.6576C39.8483 46.0013 39.694 45.7268 39.8279 45.8584Z" fill="#D1E7FF"/>
<path d="M44.1131 42.6554C40.8681 38.5169 40.9344 38.5178 40.6003 38.4076C40.2742 38.2997 39.9013 38.3973 39.6729 38.68C38.4374 40.21 36.6023 41.0875 34.6382 41.0875C31.072 41.0875 28.1707 38.1861 28.1707 34.62C28.1707 31.0539 31.0721 28.1524 34.6382 28.1524C38.4495 28.1524 41.4591 31.4511 41.0725 35.2797C41.0254 35.7467 41.3658 36.1635 41.8328 36.2106C42.2998 36.2582 42.7165 35.9174 42.7637 35.4504C43.018 32.9315 42.1055 30.5233 40.3749 28.8133V3.39953C40.3749 1.52501 38.8499 0 36.9754 0H3.93615C2.06163 0 0.536621 1.52501 0.536621 3.39953V40.3694C0.536621 40.5949 0.626177 40.8111 0.78553 40.9704C11.2357 51.4189 10.589 50.8039 10.7694 50.8974C11.0409 51.0381 9.47027 50.993 35.9164 50.993C36.3858 50.993 36.7663 50.6124 36.7663 50.1431C36.7663 49.6738 36.3858 49.2932 35.9164 49.2932H12.01V42.4271C12.01 40.8239 10.7058 39.5196 9.10249 39.5196H6.27333C5.80399 39.5196 5.42345 39.9001 5.42345 40.3694C5.42345 40.8388 5.80399 41.2193 6.27333 41.2193H9.10249C9.76848 41.2193 10.3103 41.7611 10.3103 42.4271V48.0914L2.23639 40.0175V3.39953C2.23639 2.46232 2.99895 1.69977 3.93615 1.69977H36.9754C37.9126 1.69977 38.6751 2.46232 38.6751 3.39953V27.5245C37.4835 26.8439 36.106 26.4526 34.6382 26.4526C30.1347 26.4526 26.4709 30.1165 26.4709 34.6199C26.4709 38.1203 28.6849 41.1125 31.7857 42.2721L30.0616 45.7988L29.3073 44.5323C29.0383 44.0808 28.5651 43.7842 28.0416 43.7391L26.5642 43.6117C26.7781 43.2502 26.6961 42.7773 26.3565 42.511C25.987 42.2213 25.4529 42.286 25.1634 42.6554C24.3617 43.6777 25.0168 45.1846 26.3108 45.2959L27.8634 45.4298L28.6607 46.7686C29.3247 47.8837 30.9663 47.8183 31.5374 46.6502L33.4676 42.7021C35.9467 43.0596 38.4523 42.2769 40.2818 40.5238L42.7037 43.6124L41.235 43.739C40.7113 43.7842 40.2382 44.0807 39.9692 44.5323L39.2105 45.8064C38.9782 45.4562 38.5168 45.3238 38.1293 45.5134C37.7076 45.7195 37.5329 46.2284 37.7391 46.6502C38.3094 47.8164 39.9509 47.8854 40.6157 46.7687L41.413 45.4299L42.9657 45.296C44.26 45.1845 44.9146 43.6775 44.1131 42.6554Z" fill="#1D4BA3"/>
<path d="M23.9548 33.3982C23.5073 33.2553 23.0294 33.5021 22.8866 33.9492C21.836 37.2378 21.1626 38.3074 20.8671 38.6488C20.5075 38.0914 20.0336 36.981 18.8932 36.8679C18.0965 36.789 17.4923 37.2546 17.05 37.6858C17.0613 36.4714 17.1218 35.0085 15.9319 34.5773C15.0887 34.2717 13.9864 34.6671 12.3581 35.8592C11.9794 36.1364 11.8972 36.6682 12.1745 37.047C12.4517 37.4258 12.9835 37.5079 13.3623 37.2307C14.5381 36.3698 15.0834 36.2102 15.2794 36.1835C15.3652 36.4645 15.3569 37.1286 15.3524 37.5049C15.3397 38.5242 15.3268 39.5782 16.2413 39.8972C17.0182 40.1682 17.5897 39.5723 18.0071 39.1373C18.1916 38.9448 18.5786 38.5448 18.7257 38.5595C18.8444 38.5712 19.1119 39.026 19.2261 39.2203C19.6275 39.9027 20.0298 40.4801 20.844 40.4801C21.8958 40.4801 22.9443 39.3555 24.506 34.4666C24.6485 34.0194 24.4019 33.5411 23.9548 33.3982Z" fill="#1D4BA3"/>
<path d="M34.6382 24.5883C35.1075 24.5883 35.4881 24.2078 35.4881 23.7384V12.5391C35.4881 11.3644 34.6957 10.3481 33.561 10.0675C31.9622 9.6723 30.7029 8.41395 30.3073 6.81383C30.0268 5.67913 29.0105 4.88672 27.8358 4.88672H13.182C12.0074 4.88672 10.991 5.67913 10.7105 6.81383C10.3153 8.41257 9.05691 9.67188 7.45679 10.0675C6.32219 10.3481 5.52979 11.3644 5.52979 12.5391V35.4723C5.52979 35.9417 5.91032 36.3222 6.37967 36.3222C6.84902 36.3222 7.22955 35.9417 7.22955 35.4723V12.5391C7.22955 12.1479 7.49078 11.8101 7.86473 11.7175C10.0754 11.1711 11.8135 9.43466 12.3605 7.22177C12.453 6.84772 12.7909 6.58649 13.182 6.58649H27.8358C28.227 6.58649 28.5648 6.84772 28.6573 7.22167C29.2038 9.43232 30.9402 11.1704 33.1531 11.7174C33.5272 11.81 33.7884 12.1478 33.7884 12.539V23.7383C33.7883 24.2078 34.1688 24.5883 34.6382 24.5883Z" fill="#1D4BA3"/>
<path d="M15.492 44.4065C15.0226 44.4065 14.6421 44.787 14.6421 45.2564C14.6421 45.7257 15.0226 46.1063 15.492 46.1063H21.8798C22.3491 46.1063 22.7297 45.7257 22.7297 45.2564C22.7297 44.787 22.3491 44.4065 21.8798 44.4065H15.492Z" fill="#1D4BA3"/>
<path d="M14.241 13.2795C13.7716 13.2795 13.3911 13.6601 13.3911 14.1294C13.3911 14.5988 13.7716 14.9793 14.241 14.9793H26.7768C27.2461 14.9793 27.6267 14.5988 27.6267 14.1294C27.6267 13.6601 27.2461 13.2795 26.7768 13.2795H14.241Z" fill="#1D4BA3"/>
<path d="M29.3265 21.8846C29.3265 21.4152 28.9459 21.0347 28.4766 21.0347H12.5413C12.0719 21.0347 11.6914 21.4152 11.6914 21.8846C11.6914 22.3539 12.0719 22.7344 12.5413 22.7344H28.4766C28.9461 22.7344 29.3265 22.3539 29.3265 21.8846Z" fill="#1D4BA3"/>
<path d="M22.1025 30.702C22.5718 30.702 22.9524 30.3214 22.9524 29.8521C22.9524 29.3827 22.5718 29.0022 22.1025 29.0022H12.5413C12.0719 29.0022 11.6914 29.3827 11.6914 29.8521C11.6914 30.3214 12.0719 30.702 12.5413 30.702H22.1025Z" fill="#1D4BA3"/>
</svg>
