<svg width="54" height="54" viewBox="0 0 54 54" fill="none" xmlns="http://www.w3.org/2000/svg">
<path d="M9.45078 51.9746C8.33433 51.9746 7.42578 51.0661 7.42578 49.9496V6.74961C7.42578 5.63316 8.33433 4.72461 9.45078 4.72461H44.5508C45.6672 4.72461 46.5758 5.63316 46.5758 6.74961V49.9496C46.5758 51.0661 45.6672 51.9746 44.5508 51.9746H9.45078Z" fill="#98CCFD"/>
<path d="M44.55 5.3998C45.2938 5.3998 45.9 6.00595 45.9 6.7498V49.9498C45.9 50.6937 45.2938 51.2998 44.55 51.2998H9.45C8.70615 51.2998 8.1 50.6937 8.1 49.9498V6.7498C8.1 6.00595 8.70615 5.3998 9.45 5.3998H44.55ZM44.55 4.0498H9.45C7.95825 4.0498 6.75 5.25805 6.75 6.7498V49.9498C6.75 51.4416 7.95825 52.6498 9.45 52.6498H44.55C46.0418 52.6498 47.25 51.4416 47.25 49.9498V6.7498C47.25 5.25805 46.0418 4.0498 44.55 4.0498Z" fill="#4788C7"/>
<path d="M27.0008 20.25C25.5686 20.25 24.1951 20.8189 23.1824 21.8316C22.1697 22.8443 21.6008 24.2178 21.6008 25.65C21.6008 27.0822 22.1697 28.4557 23.1824 29.4684C24.1951 30.4811 25.5686 31.05 27.0008 31.05C28.433 31.05 29.8065 30.4811 30.8192 29.4684C31.8319 28.4557 32.4008 27.0822 32.4008 25.65C32.4008 24.2178 31.8319 22.8443 30.8192 21.8316C29.8065 20.8189 28.433 20.25 27.0008 20.25ZM36.4508 43.2C36.4508 37.9809 32.2199 33.75 27.0008 33.75C21.7817 33.75 17.5508 37.9809 17.5508 43.2H36.4508Z" fill="white"/>
<path d="M32.4 12.1502H21.6C20.8548 12.1502 20.25 11.5454 20.25 10.8002C20.25 10.055 20.8548 9.4502 21.6 9.4502H32.4C33.1452 9.4502 33.75 10.055 33.75 10.8002C33.75 11.5454 33.1452 12.1502 32.4 12.1502Z" fill="#4788C7"/>
<path d="M22.2773 10.1244V3.14896C22.2773 2.52931 22.7822 2.02441 23.4019 2.02441H30.6014C31.2211 2.02441 31.726 2.52931 31.726 3.14896V10.1244H22.2773Z" fill="#DFF0FE"/>
<path d="M30.602 2.69961C30.8491 2.69961 31.0516 2.90211 31.0516 3.14916V9.44961H22.9516V3.14916C22.9516 2.90211 23.1541 2.69961 23.4011 2.69961H30.602ZM30.602 1.34961H23.4025C22.4075 1.34961 21.6016 2.15556 21.6016 3.14916V10.7996H32.4016V3.14916C32.4016 2.15556 31.5956 1.34961 30.602 1.34961Z" fill="#4788C7"/>
</svg>
