<svg width="56" height="56" viewBox="0 0 56 56" fill="none" xmlns="http://www.w3.org/2000/svg">
<path d="M11.668 47.8333V8.16667C11.668 5.6 13.768 3.5 16.3346 3.5H39.668C42.2346 3.5 44.3346 5.6 44.3346 8.16667V47.8333C44.3346 50.4 42.2346 52.5 39.668 52.5H16.3346C13.768 52.5 11.668 50.4 11.668 47.8333Z" fill="#37474F"/>
<path d="M39.668 10.5H16.3346C15.6346 10.5 15.168 10.9667 15.168 11.6667V28C15.168 28.7 15.6346 29.1667 16.3346 29.1667H39.668C40.368 29.1667 40.8346 28.7 40.8346 28V11.6667C40.8346 10.9667 40.368 10.5 39.668 10.5Z" fill="#BBDEFB"/>
<path d="M24.5013 5.83301H31.5013V8.16634H24.5013V5.83301ZM15.168 33.833H22.168V36.1663H15.168V33.833ZM33.8346 33.833H40.8346V36.1663H33.8346V33.833ZM15.168 40.833H17.5013V43.1663H15.168V40.833ZM19.8346 40.833H22.168V43.1663H19.8346V40.833ZM24.5013 40.833H26.8346V43.1663H24.5013V40.833ZM29.168 40.833H31.5013V43.1663H29.168V40.833ZM33.8346 40.833H36.168V43.1663H33.8346V40.833ZM38.5013 40.833H40.8346V43.1663H38.5013V40.833ZM15.168 45.4997H17.5013V47.833H15.168V45.4997ZM19.8346 45.4997H22.168V47.833H19.8346V45.4997ZM24.5013 45.4997H26.8346V47.833H24.5013V45.4997ZM29.168 45.4997H31.5013V47.833H29.168V45.4997ZM33.8346 45.4997H36.168V47.833H33.8346V45.4997ZM38.5013 45.4997H40.8346V47.833H38.5013V45.4997ZM36.168 5.83301C35.8585 5.83301 35.5618 5.95592 35.343 6.17472C35.1242 6.39351 35.0013 6.69026 35.0013 6.99967C35.0013 7.30909 35.1242 7.60584 35.343 7.82463C35.5618 8.04342 35.8585 8.16634 36.168 8.16634C36.4774 8.16634 36.7741 8.04342 36.9929 7.82463C37.2117 7.60584 37.3346 7.30909 37.3346 6.99967C37.3346 6.69026 37.2117 6.39351 36.9929 6.17472C36.7741 5.95592 36.4774 5.83301 36.168 5.83301Z" fill="#78909C"/>
<path d="M29.05 38.5H26.95C25.6667 38.5 24.5 37.45 24.5 36.05V33.95C24.5 32.6667 25.55 31.5 26.95 31.5H29.05C30.3333 31.5 31.5 32.55 31.5 33.95V36.05C31.5 37.45 30.45 38.5 29.05 38.5Z" fill="#90A4AE"/>
<path d="M29.0487 36.1663C29.1654 36.1663 29.1654 36.1663 29.0487 36.1663L29.1654 33.9497C29.1654 33.9497 29.1654 33.833 29.0487 33.833H26.9487C26.9487 33.833 26.832 33.833 26.832 33.9497V36.0497C26.832 36.0497 26.832 36.1663 26.9487 36.1663H29.0487Z" fill="#546E7A"/>
</svg>
