<svg width="25" height="25" viewBox="0 0 25 25" fill="none" xmlns="http://www.w3.org/2000/svg">
<path fill-rule="evenodd" clip-rule="evenodd" d="M11.5681 23.1115L11.5688 23.1105C11.5665 23.1094 11.5644 23.1082 11.562 23.1068C11.5552 23.1024 11.5478 23.0986 11.5407 23.0946C10.9189 22.7518 9.88646 21.7432 9.82075 21.6932C9.82004 21.6922 9.81934 21.6915 9.81864 21.6908L9.81794 21.6913C9.76953 21.6548 9.71762 21.6223 9.65798 21.5994C9.31399 21.467 8.92369 21.6321 8.78805 21.9679C8.71322 22.1529 8.73356 22.3508 8.8229 22.5138L8.83131 22.5458C9.66266 23.6412 10.9823 24.1858 10.9823 24.1858C11.3048 24.3097 11.6703 24.1549 11.7975 23.8404C11.9067 23.5703 11.8036 23.2696 11.5681 23.1115Z" fill="#E82227"/>
<path fill-rule="evenodd" clip-rule="evenodd" d="M6.37871 2.7819C10.3507 0.685878 14.325 0.853083 18.297 2.7826C18.7385 2.99705 19.1913 3.14578 19.4523 2.59084C19.681 2.10466 19.3398 1.83947 18.9242 1.62924C16.8172 0.563339 14.5858 -0.00562567 12.2068 0.000454506C9.91457 -0.0182537 7.77575 0.540889 5.77513 1.62176C5.35209 1.85 4.95337 2.12548 5.27095 2.65773C5.5518 3.12847 5.97063 2.99705 6.37871 2.7819Z" fill="black"/>
<path fill-rule="evenodd" clip-rule="evenodd" d="M5.09257 20.2588C4.72284 20.2588 4.42188 20.5523 4.42188 20.9131C4.42188 21.2737 4.72284 21.5672 5.09257 21.5672C5.46252 21.5672 5.76326 21.2737 5.76326 20.9131C5.76326 20.5523 5.46252 20.2588 5.09257 20.2588Z" fill="black"/>
<path fill-rule="evenodd" clip-rule="evenodd" d="M13.8216 9.26151C13.8216 8.90091 13.5209 8.60742 13.1509 8.60742C12.7812 8.60742 12.4805 8.90091 12.4805 9.26151C12.4805 9.62211 12.7812 9.9156 13.1509 9.9156C13.5209 9.9156 13.8216 9.62211 13.8216 9.26151Z" fill="black"/>
<path fill-rule="evenodd" clip-rule="evenodd" d="M21.0262 18.7666C20.6562 18.7666 20.3555 19.0601 20.3555 19.4207C20.3555 19.7813 20.6562 20.0748 21.0262 20.0748C21.3959 20.0748 21.6966 19.7813 21.6966 19.4207C21.6966 19.0601 21.3959 18.7666 21.0262 18.7666Z" fill="black"/>
<path fill-rule="evenodd" clip-rule="evenodd" d="M15.979 16.1113C15.6091 16.1113 15.3086 16.4048 15.3086 16.7654C15.3086 17.126 15.6091 17.4195 15.979 17.4195C16.3488 17.4195 16.6497 17.126 16.6497 16.7654C16.6497 16.4048 16.3488 16.1113 15.979 16.1113Z" fill="#1D1D1A"/>
<path fill-rule="evenodd" clip-rule="evenodd" d="M15.979 16.1113C15.6091 16.1113 15.3086 16.4048 15.3086 16.7654C15.3086 17.126 15.6091 17.4195 15.979 17.4195C16.3488 17.4195 16.6497 17.126 16.6497 16.7654C16.6497 16.4048 16.3488 16.1113 15.979 16.1113Z" fill="black"/>
<path fill-rule="evenodd" clip-rule="evenodd" d="M24.0613 11.8096C23.6914 11.8096 23.3906 12.1031 23.3906 12.4637C23.3906 12.8245 23.6914 13.1177 24.0613 13.1177C24.431 13.1177 24.732 12.8245 24.732 12.4637C24.732 12.1031 24.431 11.8096 24.0613 11.8096Z" fill="black"/>
<path fill-rule="evenodd" clip-rule="evenodd" d="M23.7396 10.3211C23.7396 9.96048 23.4388 9.66699 23.0689 9.66699C22.6992 9.66699 22.3984 9.96048 22.3984 10.3211C22.3984 10.6819 22.6992 10.9752 23.0689 10.9752C23.4388 10.9752 23.7396 10.6819 23.7396 10.3211Z" fill="black"/>
<path fill-rule="evenodd" clip-rule="evenodd" d="M3.7371 4.65876C4.10682 4.65876 4.40779 4.36551 4.40779 4.00467C4.40779 3.64407 4.10682 3.35059 3.7371 3.35059C3.36737 3.35059 3.06641 3.64407 3.06641 4.00467C3.06641 4.36551 3.36737 4.65876 3.7371 4.65876Z" fill="black"/>
<path fill-rule="evenodd" clip-rule="evenodd" d="M1.25462 10.4082C1.00416 10.4082 0.787851 10.5445 0.672795 10.7433L0.670457 10.7421C0.667884 10.7487 0.665312 10.755 0.662739 10.7616C0.63912 10.8053 0.620178 10.8514 0.607316 10.9002C0.0357795 12.3805 0 13.9169 0 13.9169C0 14.2778 0.300735 14.571 0.670457 14.571C0.987327 14.571 1.25205 14.3549 1.32174 14.0664L1.32291 14.0661C1.32291 14.0647 1.32291 14.0636 1.32314 14.0624C1.3339 14.0156 1.34115 13.9672 1.34115 13.9169C1.34115 13.8943 1.33647 13.8725 1.33413 13.8503C1.42346 12.381 1.87082 11.32 1.87082 11.32V11.3198C1.90567 11.2407 1.92531 11.1537 1.92531 11.0623C1.92531 10.7017 1.62434 10.4082 1.25462 10.4082Z" fill="black"/>
<path fill-rule="evenodd" clip-rule="evenodd" d="M8.98095 6.34747C3.47044 8.49307 2.04861 13.6266 3.54597 18.6465C3.55416 18.6905 3.56679 18.7328 3.58339 18.7732C3.68324 19.0122 3.92341 19.1816 4.20427 19.1816C4.24449 19.1816 4.28354 19.1766 4.3219 19.1701C4.40304 19.1561 4.47858 19.1266 4.54686 19.0868C4.74236 18.9725 4.87473 18.7658 4.87473 18.5275C4.87473 18.4849 4.86981 18.4433 4.86186 18.4026C4.85952 18.3916 4.85578 18.3815 4.85298 18.3706C4.72062 17.8968 4.59363 17.4211 4.49705 16.9403C3.42577 11.6122 7.01565 7.04201 12.2834 7.04201C17.1218 7.04201 20.3754 9.98996 20.3754 14.425C20.3754 16.1896 19.6547 17.0689 18.376 17.0427C18.3739 17.0427 18.372 17.042 18.3699 17.042C18.3683 17.042 18.3666 17.0425 18.3648 17.0425C18.34 17.042 18.315 17.0434 18.2904 17.042C18.2874 17.0448 18.2855 17.0479 18.2825 17.0507C17.9544 17.093 17.6995 17.365 17.6995 17.6961C17.6995 17.9973 17.9097 18.2482 18.1938 18.3243C18.2022 18.3278 18.2114 18.331 18.2273 18.3352C18.228 18.3352 18.2303 18.3355 18.2312 18.3359C18.2366 18.3369 18.2425 18.3373 18.2478 18.3383C18.2619 18.3402 18.2787 18.3418 18.2995 18.3434C18.3229 18.3455 18.3458 18.3502 18.3699 18.3502C18.3786 18.3502 18.3865 18.3481 18.3952 18.3479C18.5306 18.3518 18.6919 18.3502 18.6919 18.3502C20.7919 18.1879 21.5466 16.4813 21.5466 14.016C21.5466 7.86985 14.835 4.0681 8.98095 6.34747Z" fill="black"/>
<path fill-rule="evenodd" clip-rule="evenodd" d="M9.29589 4.59393C9.3238 4.58935 9.3488 4.57893 9.37589 4.57227C9.34797 4.57935 9.32089 4.58685 9.29297 4.59435C9.2938 4.59393 9.29464 4.59393 9.29589 4.59393Z" fill="#00AEEF"/>
<path fill-rule="evenodd" clip-rule="evenodd" d="M9.825 3.82938C9.8229 3.81863 9.81916 3.80857 9.81658 3.79805C9.74503 3.51766 9.48709 3.30859 9.17793 3.30859C9.13748 3.30859 9.09819 3.3135 9.05984 3.32029C9.00932 3.33455 8.96068 3.34999 8.91111 3.36472C7.83468 3.6858 6.94253 4.12357 6.02723 4.65933C4.76583 5.39784 3.76166 6.23129 2.70207 7.56121C2.55077 7.7511 2.28067 8.00062 2.10224 8.26862C2.01244 8.36683 1.95398 8.49124 1.93808 8.62875C1.90113 8.80788 1.94346 8.98701 2.11978 9.15515C2.12609 9.1617 2.13311 9.16755 2.13966 9.17386C2.16328 9.19514 2.18877 9.21619 2.21706 9.23724C2.2201 9.23957 2.22314 9.24121 2.22618 9.24355C2.22618 9.24355 2.22642 9.24355 2.22642 9.24378C2.93944 9.75803 3.39217 8.78613 3.70998 8.38507C5.38133 6.27689 6.99632 5.17801 9.29182 4.58473C9.30749 4.58075 9.32269 4.57631 9.33859 4.57234C9.40103 4.55667 9.46089 4.53422 9.51515 4.50265C9.70761 4.39016 9.83786 4.18695 9.83786 3.95239C9.83786 3.9103 9.83295 3.86937 9.825 3.82938Z" fill="black"/>
<path fill-rule="evenodd" clip-rule="evenodd" d="M22.198 7.80498C22.1662 7.74792 22.128 7.69484 22.0808 7.6497C19.6398 4.53595 16.3783 3.02971 12.4697 2.9502C12.2964 2.95253 11.8584 2.9502 11.8074 2.9502C11.4377 2.9502 11.1367 3.24368 11.1367 3.60428C11.1367 3.96512 11.4377 4.25837 11.8074 4.25837C15.2472 4.07971 18.7122 5.46926 21.0547 8.47076L21.0551 8.47123C21.0626 8.48269 21.072 8.49275 21.0801 8.5035C21.2022 8.66229 21.3947 8.76659 21.6133 8.76659C21.9821 8.76659 22.2817 8.47404 22.2817 8.1146C22.2817 8.00212 22.2496 7.89736 22.198 7.80498Z" fill="black"/>
<path fill-rule="evenodd" clip-rule="evenodd" d="M18.7936 14.427C18.7833 14.221 18.7543 14.0147 18.7164 13.8115C18.4005 12.1184 17.423 10.5869 16.1148 9.6377C16.2266 9.72749 16.3093 9.85097 16.3454 9.99245C16.3479 10.0037 16.3521 10.014 16.3545 10.0252C16.3624 10.0663 16.3673 10.1089 16.3673 10.1524C16.3673 10.3951 16.2326 10.6056 16.0336 10.7218C15.9639 10.7625 15.887 10.7925 15.8042 10.8067C15.7654 10.8135 15.7256 10.8184 15.6847 10.8184C15.5486 10.8184 15.4228 10.7787 15.3164 10.7115C16.3896 11.5979 17.2964 13.0664 17.4566 14.5456C17.5081 15.0201 17.557 15.5048 18.1605 15.4854C18.8457 15.4637 18.8177 14.913 18.7936 14.427Z" fill="black"/>
<path fill-rule="evenodd" clip-rule="evenodd" d="M15.8026 10.8067C15.8854 10.7922 15.9621 10.7625 16.0318 10.7218C16.231 10.6055 16.3657 10.3951 16.3657 10.1523C16.3657 10.1088 16.3608 10.0663 16.3526 10.0249C16.3503 10.0139 16.3463 10.0036 16.3437 9.99239C16.3075 9.8509 16.2249 9.72743 16.1129 9.63763C16.1043 9.63132 16.0956 9.62477 16.0869 9.61869C15.974 9.53614 15.8349 9.48633 15.6829 9.48633C15.3063 9.48633 15 9.78496 15 10.1523C15 10.194 15.0049 10.2342 15.0126 10.2735C15.021 10.3181 15.0337 10.3612 15.0507 10.4023C15.0844 10.4828 15.1347 10.5546 15.1957 10.6158C15.2357 10.6467 15.2752 10.6787 15.3145 10.7115C15.4209 10.7786 15.547 10.8184 15.6829 10.8184C15.724 10.8184 15.7635 10.8134 15.8026 10.8067Z" fill="black"/>
<path fill-rule="evenodd" clip-rule="evenodd" d="M16.0859 9.61816C16.1014 9.62941 16.1168 9.64066 16.1322 9.65191C16.1172 9.63983 16.1014 9.62941 16.0859 9.61816Z" fill="#00AEEF"/>
<path fill-rule="evenodd" clip-rule="evenodd" d="M15.407 10.7866C15.3366 10.7283 15.2661 10.6712 15.1953 10.6162C15.2595 10.6804 15.3295 10.7379 15.407 10.7866Z" fill="#00AEEF"/>
<path fill-rule="evenodd" clip-rule="evenodd" d="M13.0015 11.4661C12.9994 11.4657 12.9982 11.4653 12.9961 11.4648C12.9982 11.4657 13.0003 11.4661 13.0023 11.4669L13.0015 11.4661Z" fill="#1D1D1A"/>
<path fill-rule="evenodd" clip-rule="evenodd" d="M15.7008 22.1782C15.3306 22.0477 14.9455 21.9455 14.5942 21.7769C11.7611 20.4164 10.2369 18.1903 10.0907 15.1142C10.0255 13.7389 10.9372 12.7738 12.2117 12.7247L12.2302 12.7184C12.3076 12.706 12.3806 12.6805 12.447 12.6447C12.6521 12.5346 12.7929 12.3243 12.7929 12.0804C12.7929 11.8382 12.654 11.6291 12.4512 11.5182C12.3616 11.4696 12.2609 11.4397 12.1523 11.4359C12.1446 11.4357 12.1374 11.4336 12.1297 11.4336C12.1147 11.4336 12.1004 11.4371 12.0857 11.438C10.38 11.5451 9.00632 12.7673 8.78229 14.4269C8.2781 18.1653 11.5275 22.6433 15.2857 23.3935C15.7139 23.4791 16.1012 23.4562 16.2328 22.9752C16.3486 22.5528 16.0858 22.3138 15.7008 22.1782Z" fill="black"/>
<path fill-rule="evenodd" clip-rule="evenodd" d="M15.7224 14.2236C15.7161 14.1724 15.703 14.1237 15.6854 14.0767C15.5613 13.599 15.3686 13.0396 15.0922 12.6605C15.0716 12.628 15.048 12.5976 15.022 12.5691C15.0176 12.5637 15.0136 12.5574 15.0091 12.5522C15.0082 12.5511 15.0066 12.5506 15.0054 12.5494C14.8833 12.425 14.7124 12.3467 14.5223 12.3467C14.1523 12.3467 13.8516 12.6402 13.8516 13.0008C13.8516 13.0695 13.8654 13.1343 13.8857 13.1965L13.8831 13.1991C13.8831 13.1991 13.8871 13.2075 13.8939 13.2227C13.9023 13.2454 13.9121 13.2671 13.9229 13.2884C13.9926 13.4498 14.1465 13.8295 14.3275 14.4167C14.3373 14.4771 14.3543 14.5348 14.3794 14.5886C14.4902 14.8281 14.7358 14.9955 15.022 14.9955C15.1452 14.9955 15.2591 14.9621 15.3599 14.9078C15.5783 14.7907 15.7282 14.5666 15.7282 14.3066C15.7282 14.2785 15.7259 14.2509 15.7224 14.2236Z" fill="black"/>
<path fill-rule="evenodd" clip-rule="evenodd" d="M8.51562 19.8877C8.53979 19.9281 8.56229 19.9689 8.58646 20.0094C8.56521 19.9673 8.54187 19.9269 8.51562 19.8877Z" fill="#E82227"/>
<path fill-rule="evenodd" clip-rule="evenodd" d="M7.33984 20.5088C7.37109 20.5775 7.40901 20.6425 7.45318 20.7034C7.42818 20.6605 7.40359 20.6171 7.38109 20.5775C7.37776 20.5717 7.36151 20.545 7.33984 20.5088Z" fill="#E82227"/>
<path fill-rule="evenodd" clip-rule="evenodd" d="M10.7154 8.78906C10.6081 8.78906 10.4149 8.85992 10.4133 8.85992C7.64724 9.66999 5.78016 12.1626 5.80892 15.1856C5.86481 17.0766 6.69546 19.3761 7.24571 20.3377C7.2712 20.3889 7.31564 20.4637 7.343 20.5091C7.35516 20.5294 7.36428 20.5442 7.36638 20.5474C7.37878 20.5699 7.39257 20.594 7.40661 20.6183C7.52821 20.7869 7.72885 20.8982 7.95593 20.8982C8.07309 20.8982 8.18183 20.8662 8.27794 20.8145C8.48607 20.7029 8.62872 20.4897 8.62872 20.2418C8.62872 20.1386 8.60276 20.0425 8.5588 19.9558C8.54524 19.9331 8.53261 19.9102 8.51904 19.8875C7.58433 18.3286 7.11008 16.6082 7.17041 14.7023C7.24057 12.4837 8.82142 10.6882 10.8438 10.0846C10.884 10.0771 10.9226 10.0652 10.96 10.0507C11.0199 10.0343 11.1971 9.92278 11.2142 9.87601C11.3199 9.76049 11.3858 9.60989 11.3858 9.44315C11.3858 9.08255 11.0851 8.78906 10.7154 8.78906Z" fill="#00AC75"/>
<path fill-rule="evenodd" clip-rule="evenodd" d="M18.8795 19.8176C18.7883 19.7678 18.6858 19.7374 18.5752 19.7339H18.575C18.5371 19.7376 18.4995 19.7399 18.4618 19.7432C15.588 19.9871 13.2532 18.1048 13.0042 15.3026C12.9611 14.8164 12.9768 14.2484 12.2932 14.298C11.663 14.344 11.6576 14.9626 11.6901 15.4523C11.8999 18.617 14.6271 21.0633 17.9333 21.0979C18.1482 21.0979 18.3659 21.0771 18.5837 21.0472C18.6264 21.0413 18.6692 21.0355 18.7123 21.0287C18.7696 21.0142 18.8243 20.9929 18.8753 20.9653C19.0843 20.8533 19.2277 20.6389 19.2277 20.3901C19.2277 20.1433 19.0862 19.9303 18.8795 19.8176Z" fill="black"/>
</svg>
