<svg width="25" height="18" viewBox="0 0 25 18" fill="none" xmlns="http://www.w3.org/2000/svg">
<path d="M0 12.332C0.0376875 12.1114 0.0664322 11.8889 0.11434 11.6702C0.406258 10.325 1.12615 9.26233 2.28425 8.49996C2.45991 8.38428 2.5059 8.29262 2.45033 8.07832C2.12008 6.80076 2.39667 5.65342 3.3478 4.7248C4.29701 3.79871 5.45127 3.52879 6.74478 3.86762C6.81377 3.88595 6.8834 3.90365 6.9115 3.91123C7.26091 3.40868 7.55347 2.89032 7.93929 2.45225C9.61926 0.541912 11.7534 -0.304528 14.2836 0.0981472C17.0954 0.545704 18.9415 2.20066 19.8613 4.85945C19.9891 5.22925 20.0453 5.62561 20.1079 6.01374C20.1322 6.16419 20.1922 6.21287 20.3289 6.24384C23.1401 6.87851 25.1114 9.43364 24.9951 12.2878C24.8916 14.8372 23.1797 17.0491 20.7083 17.7805C20.2625 17.9126 19.7827 17.9789 19.3171 17.9859C17.7061 18.0106 16.0951 17.9954 14.4841 17.9954C14.3883 17.9954 14.2925 17.9954 14.1833 17.9954V12.6443C14.2657 12.6399 14.3442 12.6316 14.4228 12.6316C14.8623 12.6304 15.3018 12.626 15.7412 12.6329C16.0204 12.6373 16.2836 12.6203 16.433 12.3371C16.5838 12.0526 16.4445 11.8307 16.281 11.6076C15.678 10.7877 15.0795 9.96464 14.479 9.14222C13.9929 8.47657 13.5087 7.81029 13.0214 7.14591C12.6949 6.70088 12.3027 6.70025 11.9776 7.14591C10.8815 8.64599 9.78661 10.1473 8.69176 11.648C8.66813 11.6809 8.64449 11.7131 8.6215 11.7466C8.49182 11.9331 8.45478 12.131 8.56528 12.3377C8.67451 12.5425 8.85465 12.6323 9.08652 12.6316C9.65503 12.6304 10.2235 12.6316 10.8118 12.6316V17.9966H10.5167C8.74286 17.9966 6.96899 17.9897 5.19513 17.9985C3.42318 18.0074 2.07728 17.2178 1.05014 15.8423C0.494409 15.0983 0.167997 14.2544 0.0485466 13.334C0.0427977 13.2891 0.0178856 13.2467 0.00255508 13.2031C0.00255508 12.913 0.00255508 12.6234 0.00255508 12.3333L0 12.332Z" fill="#3052A1"/>
</svg>
